<svg xmlns="http://www.w3.org/2000/svg" viewBox="-399 226 160 110">
	<rect x="-399" y="226" width="160" height="110" fill="#F8F8F8" stroke-width="0"/>
	<g fill="#69b7cf">
		<path d="m-374.24 282.89-14.794-37.752h4.0346l14.746 37.752z"/>
		<path d="m-366.36 279.62-11.96-30.596h6.4361l11.864 30.596z"/>
		<path d="m-352.19 257.14-7.2046 19.693-2.6897-7.829 7.2046-19.981h5.9558l8.1172 21.422 8.5975-21.422h6.3401l-12.008 30.596h-5.9558z"/>
		<path d="m-319.62 245.13h4.0346l-14.553 37.752h-4.0346z"/>
		<path d="m-272.6 278.66h-16.09v-25.985h3.4102v22.911h12.68z"/>
		<path d="m-303.44 252.44c1.7771 0 3.4102 0.33622 4.8992 0.96062 1.489 0.6244 2.7858 1.537 3.8425 2.6897 1.1047 1.1528 1.9212 2.5456 2.5456 4.1787 0.6244 1.6331 0.91259 3.4102 0.91259 5.3795s-0.28819 3.7464-0.91259 5.3794c-0.57637 1.6331-1.4409 3.026-2.4976 4.1787-1.1047 1.1527-2.4015 2.0653-3.8905 2.7378-1.4409 0.62442-3.122 0.96063-4.8992 0.96063s-3.4582-0.33621-4.9472-0.96063c-1.489-0.62439-2.7858-1.537-3.8905-2.6897-1.0567-1.1527-1.9212-2.5456-2.4976-4.1787-0.57636-1.633-0.91257-3.4582-0.91257-5.4275 0-1.9693 0.33621-3.7944 0.91257-5.4275 0.62441-1.633 1.489-3.0259 2.5456-4.1787 1.1047-1.1527 2.4015-2.0173 3.8905-2.6417s3.122-0.96062 4.8991-0.96062zm-0.048 23.535c1.2968 0 2.4496-0.24015 3.5543-0.67243 1.0567-0.48031 1.9693-1.1528 2.7378-2.0173 0.81652-0.9126 1.3929-2.0173 1.8252-3.2661 0.43227-1.2968 0.67243-2.7378 0.67243-4.3708 0-1.633-0.24016-3.074-0.67243-4.3708-0.43228-1.2488-1.0567-2.3055-1.8252-3.2181-0.76849-0.86455-1.6811-1.537-2.7378-2.0173-1.0567-0.43228-2.2094-0.67243-3.4582-0.67243s-2.4496 0.24015-3.5543 0.72046c-1.0567 0.48032-1.9693 1.1047-2.7378 2.0173-0.7685 0.86456-1.3929 1.9693-1.8252 3.2181-0.43227 1.2488-0.67243 2.6897-0.67243 4.3228 0 1.6331 0.19213 3.074 0.6244 4.3708 0.43228 1.2488 1.0567 2.3535 1.8252 3.2661 0.7685 0.86454 1.6811 1.537 2.7378 2.0173 1.1047 0.43228 2.2574 0.67243 3.5062 0.67243z"/>
		<path d="m-261.17 252.44c1.7771 0 3.3622 0.33622 4.8991 0.96062 1.489 0.6244 2.7858 1.537 3.8425 2.6897 1.1047 1.1528 1.9212 2.5456 2.5456 4.1787 0.62441 1.6331 0.91259 3.4102 0.91259 5.3795s-0.28818 3.7464-0.91259 5.3794c-0.57637 1.6331-1.4409 3.026-2.5456 4.1787-1.0567 1.1527-2.3535 2.0653-3.8425 2.7378-1.489 0.62442-3.122 0.96063-4.8991 0.96063-1.8252 0-3.4582-0.33621-4.9472-0.96063-1.489-0.62439-2.7858-1.537-3.8905-2.6897-1.0567-1.1527-1.9212-2.5456-2.4976-4.1787-0.62439-1.633-0.91258-3.4582-0.91258-5.4275 0-1.9693 0.28819-3.7944 0.91258-5.4275 0.62441-1.633 1.4409-3.0259 2.5456-4.1787 1.1047-1.1527 2.4015-2.0173 3.8905-2.6417 1.4889-0.6244 3.122-0.96062 4.8991-0.96062zm-0.048 23.535c1.2968 0 2.4496-0.24015 3.5062-0.67243 1.1047-0.48031 2.0173-1.1528 2.7858-2.0173 0.76849-0.9126 1.3929-2.0173 1.8252-3.2661 0.43228-1.2968 0.6244-2.7378 0.6244-4.3708 0-1.633-0.19212-3.074-0.6244-4.3708-0.48031-1.2488-1.0567-2.3055-1.8252-3.2181-0.7685-0.86455-1.6811-1.537-2.7858-2.0173-1.0567-0.43228-2.1614-0.67243-3.4102-0.67243-1.2488 0-2.4496 0.24015-3.5543 0.72046-1.0567 0.48032-1.9693 1.1047-2.7858 2.0173-0.76849 0.86456-1.3449 1.9693-1.7771 3.2181-0.48031 1.2488-0.67244 2.6897-0.67244 4.3228 0 1.6331 0.19213 3.074 0.62441 4.3708 0.43228 1.2488 1.0567 2.3535 1.8252 3.2661 0.76849 0.86454 1.6811 1.537 2.7378 2.0173 1.1047 0.43228 2.2574 0.67243 3.5062 0.67243z"/>
	</g>
	<g transform="translate(5.9318 -4)" fill="#69b7cf">
		<path d="m-341.72 309.77h-2.1134c0-0.4803-0.1441-0.96061-0.38424-1.3449-0.19213-0.38425-0.52834-0.72046-0.86456-1.0086-0.38425-0.28818-0.81652-0.48031-1.2968-0.62439-0.52834-0.1441-1.0567-0.24016-1.633-0.24016-0.76848 0-1.4889 0.14409-2.1134 0.43227-0.6244 0.24016-1.1527 0.67244-1.585 1.2008-0.4803 0.52834-0.81652 1.1527-1.0567 1.9693-0.24015 0.76849-0.3362 1.6811-0.3362 2.6897 0 1.0086 0.096 1.8732 0.3362 2.6417 0.24016 0.7685 0.57638 1.4409 1.0567 1.9693 0.43228 0.52834 0.96062 0.96062 1.585 1.2488 0.62441 0.24016 1.2968 0.38425 2.0653 0.38425 1.2488 0 2.2094-0.28819 2.9779-0.86456s1.1527-1.4409 1.2488-2.5456h2.1134c-0.048 0.81652-0.28819 1.537-0.6244 2.2094-0.33622 0.62441-0.7685 1.1527-1.3449 1.633-0.52834 0.43229-1.1527 0.7685-1.9212 1.0086-0.72045 0.24015-1.537 0.33622-2.4015 0.33622-1.1047 0-2.1134-0.19213-2.9779-0.57637-0.91258-0.38425-1.6811-0.91258-2.3055-1.585-0.62441-0.72046-1.1047-1.537-1.4409-2.5456-0.33621-1.0086-0.48032-2.1134-0.48032-3.3141 0-1.2488 0.14411-2.3535 0.48032-3.3622 0.33622-0.96062 0.81652-1.8252 1.4409-2.5456 0.67243-0.67243 1.3929-1.2008 2.3055-1.585 0.86456-0.38425 1.8732-0.57637 2.9779-0.57637 0.81653 0 1.585 0.0961 2.3535 0.33622 0.72046 0.24016 1.3929 0.57638 1.9212 1.0087 0.57637 0.4803 1.0567 1.0086 1.3929 1.633 0.33621 0.57637 0.57637 1.2488 0.6244 2.0173z"/>
		<path d="m-332.11 304.78c1.0567 0 2.0653 0.19213 2.9779 0.57638 0.91259 0.38424 1.6811 0.96061 2.3535 1.633 0.67243 0.72047 1.1527 1.585 1.537 2.5456 0.38424 1.0086 0.57637 2.1134 0.57637 3.3141 0 1.1527-0.19213 2.2574-0.57637 3.2181-0.33622 1.0086-0.86456 1.8732-1.537 2.5937-0.67243 0.67244-1.4409 1.2488-2.3535 1.633-0.9126 0.38424-1.8732 0.57637-2.9779 0.57637s-2.1134-0.19213-3.0259-0.57637c-0.9126-0.38425-1.6811-0.91258-2.3535-1.633-0.6244-0.72047-1.1527-1.537-1.537-2.5456-0.33621-1.0086-0.52834-2.0653-0.52834-3.2661 0-1.2488 0.19213-2.3055 0.52834-3.3141 0.38425-1.0086 0.91259-1.8252 1.585-2.5456 0.67243-0.72046 1.4409-1.2488 2.3535-1.633 0.91258-0.38425 1.8732-0.57638 2.9779-0.57638zm0 14.313c0.7685 0 1.489-0.14409 2.1134-0.38425 0.67244-0.28818 1.2008-0.72046 1.6811-1.2488s0.86456-1.2008 1.1047-1.9693c0.28819-0.81652 0.38425-1.6811 0.38425-2.6417 0-1.0086-0.0961-1.9212-0.38425-2.6897-0.28818-0.7685-0.6244-1.3929-1.1047-1.9212-0.48031-0.57636-1.0086-0.96061-1.6811-1.2488-0.6244-0.28818-1.3449-0.43227-2.0653-0.43227-0.7685 0-1.489 0.14409-2.1614 0.43227-0.67243 0.28819-1.2008 0.72047-1.6811 1.2488-0.48031 0.52835-0.86455 1.2008-1.1047 1.9693-0.28819 0.76849-0.43228 1.633-0.43228 2.6417 0 0.96062 0.14409 1.8252 0.38425 2.6417 0.28819 0.7685 0.67243 1.4409 1.1047 1.9693 0.48031 0.52834 1.0567 0.96062 1.6811 1.2488 0.67244 0.24016 1.3929 0.38425 2.1614 0.38425z"/>
		<path d="m-309.11 312.75c0 5.2354-2.6417 7.829-7.9251 7.829h-4.8992v-15.514h4.8992c5.2834 0 7.9251 2.5456 7.9251 7.6849zm-2.1134 0c0-0.91259-0.0961-1.7291-0.28819-2.4496-0.14408-0.72046-0.4803-1.3449-0.91259-1.8252-0.43227-0.52832-1.0567-0.91259-1.7771-1.1527-0.76848-0.28818-1.7291-0.43227-2.8338-0.43227h-2.8338v11.864h2.8338c1.1047 0 2.0653-0.14409 2.8338-0.38425 0.72047-0.28818 1.3449-0.67243 1.7771-1.2008 0.43229-0.52834 0.76851-1.1527 0.91259-1.8732 0.19213-0.7685 0.28819-1.585 0.28819-2.5456z"/>
		<path d="m-294.65 320.58h-11.624v-15.514h11.239v1.8252h-9.1739v4.7551h8.5975v1.8252h-8.5975v5.2834h9.5581z"/>
	</g>
</svg>
